<?xml version="1.0" standalone="no"?>
<!DOCTYPE svg PUBLIC "-//W3C//DTD SVG 20010904//EN"
 "http://www.w3.org/TR/2001/REC-SVG-20010904/DTD/svg10.dtd">
<svg version="1.0" xmlns="http://www.w3.org/2000/svg"
 width="16.000000pt" height="16.000000pt" viewBox="0 0 16.000000 16.000000"
 preserveAspectRatio="xMidYMid meet">
<metadata>
Created by potrace 1.11, written by Peter Selinger 2001-2013
</metadata>
<g transform="translate(0.000000,16.000000) scale(0.006154,-0.006154)"
fill="#000000" stroke="none">
<path d="M1673 2462 c-13 -2 -23 -8 -23 -14 0 -6 -26 -65 -59 -132 -32 -66
-79 -164 -104 -216 -146 -307 -227 -470 -236 -470 -11 0 -51 48 -51 62 0 6 -6
24 -14 41 -16 38 -40 100 -41 107 -1 3 -8 21 -17 40 -8 19 -21 53 -28 75 -7
22 -16 45 -20 50 -4 6 -13 26 -18 45 -15 51 -148 390 -157 398 -11 11 -339 9
-347 -2 -3 -5 -2 -16 3 -25 5 -9 38 -90 75 -181 81 -201 111 -276 129 -315 7
-16 23 -54 35 -84 11 -30 30 -75 42 -100 11 -25 21 -50 23 -56 1 -5 6 -19 10
-30 5 -11 35 -82 66 -158 32 -77 66 -145 76 -153 10 -7 34 -17 54 -21 l37 -8
-21 -45 c-12 -25 -63 -133 -115 -240 -51 -107 -94 -199 -95 -205 -1 -5 -5 -12
-9 -15 -5 -4 -67 -131 -73 -150 -1 -3 -34 -72 -74 -155 -145 -297 -172 -358
-162 -364 15 -10 354 -7 369 3 13 8 29 41 30 60 0 5 4 12 9 15 5 3 17 24 28
46 10 22 58 123 108 225 49 102 105 218 124 259 19 41 86 179 148 306 62 128
116 242 120 254 3 12 10 21 14 21 4 0 8 6 8 13 0 6 47 107 104 222 57 116 104
212 104 215 0 3 11 24 23 48 12 23 19 42 15 42 -5 0 -3 4 3 8 12 8 94 176 94
192 0 6 5 10 10 10 6 0 10 5 10 12 0 7 23 58 50 115 28 56 50 107 50 113 0 5
5 10 10 10 6 0 10 6 10 13 0 6 11 33 24 59 17 34 21 50 13 55 -12 7 -320 11
-364 5z"/>
<path d="M1545 448 c-47 -10 -90 -45 -109 -92 -30 -71 7 -174 71 -198 18 -6
30 -15 28 -19 -5 -8 68 -8 75 0 3 3 18 13 34 21 39 20 67 60 76 108 19 106
-74 202 -175 180z"/>
</g>
</svg>
